<svg xmlns="http://www.w3.org/2000/svg" width="512" height="512" viewBox="0 0 512 512">
  <defs>
    <linearGradient id="gradient" x1="0%" y1="0%" x2="100%" y2="100%">
      <stop offset="0%" stop-color="#3498db" />
      <stop offset="100%" stop-color="#2980b9" />
    </linearGradient>
  </defs>
  <rect width="512" height="512" fill="url(#gradient)" rx="64" ry="64" />
  <g fill="white">
    <path d="M256 128c-48.5 0-88 39.5-88 88v32h-8c-13.3 0-24 10.7-24 24v128c0 13.3 10.7 24 24 24h192c13.3 0 24-10.7 24-24V272c0-13.3-10.7-24-24-24h-8v-32c0-48.5-39.5-88-88-88zm0 48c22.1 0 40 17.9 40 40v32h-80v-32c0-22.1 17.9-40 40-40z" />
    <circle cx="256" cy="336" r="24" />
  </g>
</svg>
