<?xml version="1.0" encoding="UTF-8"?>
<svg width="200" height="200" viewBox="0 0 200 200" fill="none" xmlns="http://www.w3.org/2000/svg">
  <rect width="200" height="200" fill="#F5F5F5"/>
  <path d="M100 70C88.954 70 80 78.954 80 90C80 101.046 88.954 110 100 110C111.046 110 120 101.046 120 90C120 78.954 111.046 70 100 70Z" fill="#CCCCCC"/>
  <path d="M140 130H60L80 100L95 120L110 100L140 130Z" fill="#CCCCCC"/>
  <path d="M65 50L135 50C141.627 50 147 55.3726 147 62L147 138C147 144.627 141.627 150 135 150L65 150C58.3726 150 53 144.627 53 138L53 62C53 55.3726 58.3726 50 65 50Z" stroke="#CCCCCC" stroke-width="4"/>
  <line x1="47" y1="153" x2="153" y2="47" stroke="#999999" stroke-width="4"/>
  <line x1="47" y1="47" x2="153" y2="153" stroke="#999999" stroke-width="4"/>
</svg>