<?xml version="1.0" encoding="UTF-8"?>
<svg width="512px" height="512px" viewBox="0 0 512 512" version="1.1" xmlns="http://www.w3.org/2000/svg">
    <title>Offline Image</title>
    <g id="Offline-Image" stroke="none" stroke-width="1" fill="none" fill-rule="evenodd">
        <rect id="Background" fill="#F5F5F5" x="0" y="0" width="512" height="512"></rect>
        <g id="Image-Icon" transform="translate(128.000000, 128.000000)" fill="#CCCCCC">
            <path d="M240,32 C248.8,32 256,39.2 256,48 L256,208 C256,216.8 248.8,224 240,224 L16,224 C7.2,224 0,216.8 0,208 L0,48 C0,39.2 7.2,32 16,32 L240,32 Z M240,48 L16,48 L16,208 L240,208 L240,48 Z" id="Frame"></path>
            <circle id="Sun" cx="192" cy="80" r="16"></circle>
            <path d="M240,168 L240,208 L16,208 L16,168 L64,120 L112,168 L240,168 Z" id="Landscape"></path>
        </g>
        <g id="Cloud-Icon" transform="translate(96.000000, 324.000000)" fill="#CCCCCC">
            <path d="M293.2,116.5 C288.7,149.3 260.6,174.4 227.8,175 C227.5,175 227.2,175 226.9,175 L53.1,175 C52.8,175 52.5,175 52.2,175 C23.4,174.5 0,151 0,122.1 C0,101.1 12.1,82.8 29.7,74.2 C34.7,71.8 40.5,74.1 42.9,79.1 C45.3,84.1 43,89.9 38,92.3 C27.2,97.6 20,109.1 20,122.1 C20,140 33.2,155 53.1,155 L226.9,155 C246.8,155 260,140 260,122.1 C260,115.4 257.8,109.1 253.9,103.9 C255.3,99.3 256,94.5 256,89.5 C256,65.9 236.4,45.8 212.8,45.1 C211.7,45.1 210.7,45 209.6,45 C209.1,45 208.5,45 208,45 C207.5,45 207,45 206.4,45 C205.3,45 204.3,45.1 203.2,45.1 C179.6,45.8 160,65.9 160,89.5 C160,94.9 153.8,99.3 146.1,99.3 C138.5,99.3 132.3,94.9 132.3,89.5 C132.3,55.5 157.6,25.5 190.7,20.5 C192.5,20.2 194.3,20 196.1,19.9 C197.9,19.7 199.8,19.6 201.7,19.6 C213.3,19.3 224.2,22.2 233.7,27.4 C250.3,36.4 262.9,52.6 267.3,71.8 C282.7,77 294.9,90.3 298.8,106.7 C299.7,111.9 297.2,117 292.2,118 C287.1,119 282,116.5 280.8,111.2 C280.7,110.8 280.7,110.5 280.6,110.1 C279.4,102.8 275.7,96.1 270.4,91.2 C278.1,90.4 285.2,91.9 291.1,95.5 C295.9,98.1 298.2,103.7 296.6,108.8 C295.4,112.6 294.6,114.7 293.2,116.5 Z" id="Offline-Cloud"></path>
            <path d="M97.9,59.3 L125.7,59.3 C129.2,59.3 132,62 132,65.4 C132,68.8 129.2,71.5 125.7,71.5 L97.9,71.5 L97.9,99 C97.9,102.5 95.1,105.2 91.6,105.2 C88.1,105.2 85.3,102.5 85.3,99 L85.3,71.5 L57.5,71.5 C54,71.5 51.2,68.8 51.2,65.4 C51.2,62 54,59.3 57.5,59.3 L85.3,59.3 L85.3,31.8 C85.3,28.3 88.1,25.6 91.6,25.6 C95.1,25.6 97.9,28.3 97.9,31.8 L97.9,59.3 Z" id="Offline-Symbol"></path>
        </g>
    </g>
</svg>