<svg xmlns="http://www.w3.org/2000/svg" width="512" height="512" viewBox="0 0 512 512" fill="none">
  <rect width="512" height="512" rx="64" fill="#3B82F6"/>
  <path d="M256 164C303.496 164 342 202.504 342 250C342 297.496 303.496 336 256 336C208.504 336 170 297.496 170 250C170 202.504 208.504 164 256 164Z" fill="#F9FAFB"/>
  <path d="M256 210C277.539 210 295 227.461 295 249C295 270.539 277.539 288 256 288C234.461 288 217 270.539 217 249C217 227.461 234.461 210 256 210Z" fill="#3B82F6"/>
  <rect x="246" y="100" width="20" height="64" rx="10" fill="#F9FAFB"/>
  <rect x="246" y="348" width="20" height="64" rx="10" fill="#F9FAFB"/>
  <rect x="348" y="246" width="64" height="20" rx="10" fill="#F9FAFB"/>
  <rect x="100" y="246" width="64" height="20" rx="10" fill="#F9FAFB"/>
</svg>