<svg xmlns="http://www.w3.org/2000/svg" width="512" height="512" viewBox="0 0 512 512" fill="none">
  <rect width="512" height="512" fill="#3b82f6"/>
  <path d="M256 128C207.5 128 168 167.5 168 216V256H144C130.8 256 120 266.8 120 280V408C120 421.2 130.8 432 144 432H368C381.2 432 392 421.2 392 408V280C392 266.8 381.2 256 368 256H344V216C344 167.5 304.5 128 256 128ZM304 256H208V216C208 189.5 229.5 168 256 168C282.5 168 304 189.5 304 216V256Z" fill="white"/>
  <circle cx="256" cy="344" r="24" fill="white"/>
</svg>
